<?xml version="1.0" encoding="UTF-8"?>
<svg width="75px" height="20px" viewBox="0 0 75 20" version="1.1" xmlns="http://www.w3.org/2000/svg" xmlns:xlink="http://www.w3.org/1999/xlink">
    <!-- Generator: Sketch 61 (89581) - https://sketch.com -->
    <title>Intranet</title>
    <desc>Created with Sketch.</desc>
    <g id="Page-1" stroke="none" stroke-width="1" fill="none" fill-rule="evenodd">
        <g id="Custom-Preset" transform="translate(-228.000000, -22.000000)" fill="#FFFFFF" fill-rule="nonzero">
            <g id="Group-Copy-7" transform="translate(183.000000, 16.000000)">
                <path d="M52.722,9.146 L54.768,6 L52.216,6 L50.698,9.146 L52.722,9.146 Z M47.464,25.448 L49.07,20.96 L54.702,20.96 L56.286,25.448 L58.75,25.448 L53.14,10.048 L50.61,10.048 L45,25.448 L47.464,25.448 Z M54.02,18.914 L49.752,18.914 L51.886,12.688 L54.02,18.914 Z M62.882,25.448 L62.882,20.498 C62.882,18.012 63.608,16.098 66.116,16.098 L66.116,13.678 C64.488,13.678 63.278,14.624 62.838,15.768 L62.838,13.964 L60.484,13.964 L60.484,25.448 L62.882,25.448 Z M72.536,25.602 C73.284,25.602 73.702,25.514 73.702,25.514 L73.702,23.446 C73.702,23.446 73.438,23.468 73.24,23.468 C71.964,23.468 71.282,23.072 71.282,21.29 L71.282,15.944 L73.614,15.944 L73.614,13.964 L71.282,13.964 L71.282,11.566 L68.906,11.566 L68.906,13.964 L67.63,13.964 L67.63,15.944 L68.906,15.944 L68.906,20.916 C68.906,23.732 69.742,25.602 72.536,25.602 Z M81.046,25.734 C83.774,25.734 85.292,24.172 85.842,23.226 L84.258,22.038 C83.818,22.676 82.828,23.644 81.09,23.644 C79.044,23.644 77.57,22.324 77.526,20.278 L86.172,20.278 C86.194,20.08 86.194,19.882 86.194,19.684 C86.194,16.076 84.148,13.678 80.672,13.678 C77.526,13.678 75.084,16.186 75.084,19.75 C75.084,23.226 77.46,25.734 81.046,25.734 Z M83.752,18.628 L77.614,18.628 C77.768,16.824 79.044,15.68 80.694,15.68 C82.344,15.68 83.664,16.736 83.752,18.628 Z M90.678,25.448 L90.678,18.54 C90.678,16.89 91.69,15.834 92.988,15.834 C94.352,15.834 95.188,16.78 95.188,18.342 L95.188,25.448 L97.586,25.448 L97.586,18.584 C97.586,16.824 98.576,15.834 99.918,15.834 C101.348,15.834 102.118,16.78 102.118,18.562 L102.118,25.448 L104.494,25.448 L104.494,17.946 C104.494,15.46 103.174,13.678 100.578,13.678 C98.994,13.678 97.718,14.382 97.036,15.592 C96.486,14.426 95.342,13.678 93.736,13.678 C92.174,13.678 91.052,14.58 90.634,15.46 L90.634,13.964 L88.28,13.964 L88.28,25.448 L90.678,25.448 Z M108.428,12.622 C109.264,12.622 109.924,11.962 109.924,11.126 C109.924,10.29 109.264,9.63 108.428,9.63 C107.592,9.63 106.932,10.29 106.932,11.126 C106.932,11.962 107.592,12.622 108.428,12.622 Z M109.638,25.448 L109.638,13.964 L107.24,13.964 L107.24,25.448 L109.638,25.448 Z M115.794,25.734 C118.148,25.734 119.952,24.348 119.952,22.214 C119.952,18.166 114.342,19.09 114.342,16.89 C114.342,16.098 115.002,15.636 115.882,15.636 C117.158,15.636 117.774,16.384 118.104,16.912 L119.754,15.812 C119.314,14.932 118.17,13.678 116.014,13.678 C113.792,13.678 112.076,14.91 112.076,16.934 C112.076,20.916 117.664,20.124 117.664,22.324 C117.664,23.248 116.916,23.754 115.904,23.754 C114.474,23.754 113.682,23.028 113.154,22.258 L111.658,23.446 C112.23,24.48 113.462,25.734 115.794,25.734 Z" id="logo"></path>
            </g>
        </g>
    </g>
</svg>