<svg width="13" height="5" viewBox="0 0 13 5" fill="none" xmlns="http://www.w3.org/2000/svg">
<path d="M11.187 0.939453C10.5433 0.939453 9.99951 1.32695 9.75576 1.87695H7.93076C7.68701 1.32695 7.14326 0.939453 6.49951 0.939453C5.85576 0.939453 5.31201 1.32695 5.06826 1.87695H3.24326C2.99951 1.32695 2.45576 0.939453 1.81201 0.939453C0.949512 0.939453 0.249512 1.63945 0.249512 2.50195C0.249512 3.36445 0.949512 4.06445 1.81201 4.06445C2.45576 4.06445 2.99951 3.67695 3.24326 3.12695H5.06826C5.31201 3.67695 5.85576 4.06445 6.49951 4.06445C7.14326 4.06445 7.68701 3.67695 7.93076 3.12695H9.75576C9.99951 3.67695 10.5433 4.06445 11.187 4.06445C12.0495 4.06445 12.7495 3.36445 12.7495 2.50195C12.7495 1.63945 12.0495 0.939453 11.187 0.939453Z" fill="#0061A0"/>
</svg>
