<?xml version="1.0" encoding="UTF-8"?>
<svg width="32px" height="32px" viewBox="0 0 65 64" version="1.1" xmlns="http://www.w3.org/2000/svg" xmlns:xlink="http://www.w3.org/1999/xlink">
    <!-- Generator: Sketch 60.1 (88133) - https://sketch.com -->
    <title>logo-bb</title>
    <desc>Created with Sketch.</desc>
    <g id="login" stroke="none" stroke-width="1" fill="none" fill-rule="evenodd">
        <g id="login/login-01-v01" transform="translate(-165.000000, -64.000000)" fill="#003659">
            <path d="M171.500198,115 L178,119.389466 L165,128 L165,119.389466 L171.500198,115 Z M203.000906,81 L209.605768,85.413752 L179.068146,106.096563 L197.68247,118.557918 L206.260255,112.759842 L199.998037,108.609712 L215.78625,97.8759193 L229,106.532008 L197.252454,128 L165.085762,106.615684 L165,106.529164 L203.000906,81 Z M197.747949,64 L229.914238,85.3845004 L230,85.4710214 L191.999497,111 L185.394232,106.586616 L215.932256,85.9036264 L197.317932,73.4421638 L188.739745,79.24029 L195.002365,83.3900489 L179.21375,94.124341 L166,85.4677718 L197.747949,64 Z M229,64 L229,72.6105337 L222.500198,77 L216,72.6105337 L229,64 Z" id="logo-bb"></path>
        </g>
    </g>
</svg>